# xmcd
#
# Track frame offsets:
# 150
# 16921
# 31367
# 45882
# 63480
# 81580
# 97188
# 111509
# 128277
# 146028
# 160404
# 178564
# 197788
#
# Disc length: 2946 seconds
#
#
# Revision: 3
# Processed by: cddbd v1.5.2PL0 Copyright (c) Steve Scherf et al.
# Submitted via: FreeRIP 2.60 
#
DISCID=b10b800d
DTITLE=Γιάννης Πάριος - Μια Συνηθισμένη Μέρα
DYEAR=2003
DGENRE=Folk
TTITLE0=Τι Να Κάνω
TTITLE1=Δεν Υπάρχει Χώρος Για Πληγές
TTITLE2=Τι Να Την Κάνω Τη Συγγνώμη σου
TTITLE3=Μια Συνηθισμέμη Μέρα
TTITLE4=Διπλανώ Τραπέζι
TTITLE5=Τόσα Βάσανα
TTITLE6=Κέρμα
TTITLE7=Φοβάμια
TTITLE8=Είπα Να Χαθώ
TTITLE9=Η Απουσία Σου
TTITLE10=Πάρε Με
TTITLE11=Θυμάσαι
TTITLE12=Athina-Saloniki
EXTD=
EXTT0=
EXTT1=
EXTT2=
EXTT3=
EXTT4=
EXTT5=
EXTT6=
EXTT7=
EXTT8=
EXTT9=
EXTT10=
EXTT11=
EXTT12=
PLAYORDER=
